# xmcd CD database file
#
# Track frame offsets:
#	187
#	22435
#	53637
#	75182
#	104680
#	131845
#	151397
#	173180
#	200232
#	228140
#
# Disc length: 3246 seconds
#
# Revision: 0
# Processed by: cddbd v1.5PL3 Copyright (c) Steve Scherf et al.
# Submitted via: CDex 1.51
#
DISCID=840cac0a
DTITLE=Yuichi Inoue - My Be Bop
DYEAR=1900
DGENRE=Jazz
TTITLE0=I want to be happy
TTITLE1=dear old stockholm
TTITLE2=getting around
TTITLE3=a ghost of a chance
TTITLE4=celia
TTITLE5=conception
TTITLE6=my heart stood still
TTITLE7=whenever I miss you
TTITLE8=my old flame
TTITLE9=52nd street theme
EXTD=
EXTT0=
EXTT1=
EXTT2=
EXTT3=
EXTT4=
EXTT5=
EXTT6=
EXTT7=
EXTT8=
EXTT9=
PLAYORDER=
